<svg width="137" height="43" viewBox="0 0 137 43" fill="none" xmlns="http://www.w3.org/2000/svg">
<path d="M52.2112 38.4844C51.5495 38.4844 51.2185 37.1846 51.2185 36.0502V33.4504C51.2185 33.025 50.9113 32.4342 50.3205 32.4342H49.3515V38.4844H45.121V22.7443H51.124C53.1802 22.7443 55.0946 24.1623 55.0946 26.3366V28.6527C55.0946 29.4563 54.5273 30.4253 53.4402 30.8743C54.5273 31.3234 55.1654 32.2923 55.1654 33.1196V35.8611C55.1654 36.8537 55.4254 37.6573 55.709 38.4135V38.4844H52.2112ZM51.1004 26.7147C51.1004 26.1476 50.8641 25.9348 50.3914 25.9348H49.3515V29.5745H50.3914C50.8641 29.5745 51.1004 29.3618 51.1004 28.7945V26.7147ZM62.9171 38.4844L62.6335 36.2865H60.1283L59.7737 38.4844H55.9214L59.112 22.7442H64.0279L67.1476 38.4844H62.9171ZM61.5227 28.0619L60.6246 33.3795H62.2317L61.5227 28.0619ZM75.3483 38.4844L71.8032 31.0871V38.4844H68.0217V22.7442H71.685L75.0646 30.2835V22.7442H78.8224V38.4844H75.3483ZM85.8416 38.8862C82.6746 38.8862 80.3585 36.9482 80.3585 34.0413V27.1874C80.3585 24.2805 82.6746 22.3425 85.8416 22.3425C88.8431 22.3425 90.7574 24.1859 90.7574 26.9038V28.6764H86.9996V26.8802C86.9996 26.2657 86.5978 25.8403 85.8416 25.8403C85.0853 25.8403 84.6835 26.2657 84.6835 26.8802V34.3485C84.6835 34.963 85.0853 35.3884 85.8416 35.3884C86.5978 35.3884 86.9996 34.963 86.9996 34.3485V32.5523H90.7574V34.3249C90.7574 37.0428 88.8431 38.8862 85.8416 38.8862ZM98.911 38.4844V32.7178H96.4058V38.4844H92.1753V22.7442H96.4058V29.1254H98.911V22.7442H103.141V38.4844H98.911ZM104.796 38.4844V22.7442H113.8V26.1712H109.026V28.9363H112.122V31.9142H109.026V34.8448H113.8V38.4844H104.796ZM122.285 38.4844C121.623 38.4844 121.292 37.1846 121.292 36.0502V33.4504C121.292 33.025 120.985 32.4342 120.394 32.4342H119.425V38.4844H115.194V22.7443H121.197C123.254 22.7443 125.168 24.1623 125.168 26.3366V28.6527C125.168 29.4563 124.601 30.4253 123.514 30.8743C124.601 31.3234 125.239 32.2923 125.239 33.1196V35.8611C125.239 36.8537 125.499 37.6573 125.782 38.4135V38.4844H122.285ZM121.174 26.7147C121.174 26.1476 120.937 25.9348 120.465 25.9348H119.425V29.5745H120.465C120.937 29.5745 121.174 29.3618 121.174 28.7945V26.7147ZM131.596 38.8862C128.382 38.8862 126.444 37.2082 126.444 34.3958V33.545H130.131V34.3012C130.131 35.0575 130.603 35.6011 131.407 35.6011C132.211 35.6011 132.589 35.1521 132.589 34.3249C132.589 33.3559 131.431 32.6705 130.131 31.8433C128.453 30.8034 126.562 29.5272 126.562 27.211C126.562 24.7531 128.311 22.3661 131.714 22.3661C134.503 22.3661 136.417 24.375 136.417 26.8329V27.4947H132.731V26.762C132.731 26.0766 132.281 25.6512 131.714 25.6512C131.171 25.6512 130.603 26.0294 130.603 26.7856C130.603 27.7546 131.762 28.4164 133.061 29.2436C134.739 30.3071 136.654 31.607 136.654 34.0176C136.654 36.4992 134.857 38.8862 131.596 38.8862ZM61.72 20.6459L61.3964 19.1523C59.8529 20.5464 57.6373 21.2683 55.347 21.2683C49.5466 21.2683 44.7917 17.8578 44.7917 12.5801V12.2814C44.7917 7.07841 49.7706 3.4438 56.4175 3.4438C60.5499 3.4438 63.6618 4.21556 66.201 5.46026L63.5871 10.2898C61.72 9.44339 60.052 8.97041 58.1103 8.97041C55.3719 8.97041 53.6292 10.5139 53.6292 12.6548V12.8042C53.6292 14.721 55.0482 16.0653 57.3136 16.0653C58.6082 16.0653 59.6538 15.5176 60.2015 14.6962V14.5966H56.2681V11.659H66.5993V20.6459H61.72ZM78.8221 21.2683C71.7023 21.2683 67.5449 17.2852 67.5449 12.4805V12.1818C67.5449 7.35225 71.7023 3.44379 78.8221 3.44379C85.9171 3.44379 90.0745 7.35225 90.0745 12.1818V12.4805C90.0745 17.2852 85.9171 21.2683 78.8221 21.2683ZM81.2369 12.132C81.2369 10.2898 80.8386 8.597 78.8221 8.597C76.8056 8.597 76.3824 10.2898 76.3824 12.132V12.5552C76.3824 14.3725 76.8056 16.0653 78.8221 16.0653C80.8386 16.0653 81.2369 14.3725 81.2369 12.5552V12.132ZM102.347 21.2683C95.2273 21.2683 91.0699 17.2852 91.0699 12.4805V12.1818C91.0699 7.35225 95.2273 3.44379 102.347 3.44379C109.442 3.44379 113.599 7.35225 113.599 12.1818V12.4805C113.599 17.2852 109.442 21.2683 102.347 21.2683ZM104.762 12.132C104.762 10.2898 104.364 8.597 102.347 8.597C100.331 8.597 99.9074 10.2898 99.9074 12.132V12.5552C99.9074 14.3725 100.331 16.0653 102.347 16.0653C104.364 16.0653 104.762 14.3725 104.762 12.5552V12.132ZM125.748 20.6459H115.093V4.06618H125.748C133.116 4.06618 137 7.7008 137 12.1818V12.4806C137 16.9367 133.116 20.6459 125.748 20.6459ZM128.187 12.132C128.187 10.4641 127.366 9.06998 125.125 9.06998H123.756V15.5923H125.125C127.366 15.5923 128.187 14.1983 128.187 12.5303V12.132Z" fill="#00263A"/>
<path d="M41.9729 3.43703V0.289062H38.825C38.825 1.44811 37.8854 2.38771 36.7263 2.38771C35.5673 2.38771 34.6277 1.44811 34.6277 0.289062H32.529C32.529 1.44811 31.5894 2.38771 30.4304 2.38771C29.2713 2.38771 28.3317 1.44811 28.3317 0.289062H26.2331C26.2331 1.44811 25.2935 2.38771 24.1344 2.38771C22.9754 2.38771 22.0358 1.44811 22.0358 0.289062H19.9372C19.9372 1.44811 18.9976 2.38771 17.8385 2.38771C16.6795 2.38771 15.7399 1.44811 15.7399 0.289062H13.6412C13.6412 1.44811 12.7016 2.38771 11.5426 2.38771C10.3835 2.38771 9.44392 1.44811 9.44392 0.289062H7.34527C7.34527 1.44811 6.40568 2.38771 5.24663 2.38771C4.08757 2.38771 3.14797 1.44811 3.14797 0.289062H0V3.43703C1.15905 3.43703 2.09865 4.37663 2.09865 5.53568C2.09865 6.69473 1.15905 7.63433 0 7.63433V9.73298C1.15905 9.73298 2.09865 10.6726 2.09865 11.8316C2.09865 12.9907 1.15905 13.9303 0 13.9303V16.0289C1.15905 16.0289 2.09865 16.9685 2.09865 18.1276C2.09865 19.2866 1.15905 20.2262 0 20.2262V22.3249C1.15905 22.3249 2.09865 23.2645 2.09865 24.4235C2.09865 25.5826 1.15905 26.5222 0 26.5222V28.6208C1.15905 28.6208 2.09865 29.5604 2.09865 30.7194C2.09865 31.8785 1.15905 32.8181 0 32.8181V34.9167C1.15905 34.9167 2.09865 35.8563 2.09865 37.0154C2.09865 38.1744 1.15905 39.114 0 39.114V42.262H3.14797C3.14797 41.103 4.08757 40.1634 5.24662 40.1634C6.40567 40.1634 7.34527 41.103 7.34527 42.262H9.44391C9.44391 41.103 10.3835 40.1634 11.5426 40.1634C12.7016 40.1634 13.6412 41.103 13.6412 42.262H15.7399C15.7399 41.103 16.6794 40.1634 17.8385 40.1634C18.9976 40.1634 19.9371 41.103 19.9371 42.262H22.0358C22.0358 41.103 22.9754 40.1634 24.1344 40.1634C25.2935 40.1634 26.2331 41.103 26.2331 42.262H28.3317C28.3317 41.103 29.2713 40.1634 30.4304 40.1634C31.5894 40.1634 32.529 41.103 32.529 42.262H34.6277C34.6277 41.103 35.5673 40.1634 36.7263 40.1634C37.8854 40.1634 38.825 41.103 38.825 42.262H41.9729V39.114C40.8139 39.114 39.8743 38.1744 39.8743 37.0154C39.8743 35.8563 40.8139 34.9167 41.9729 34.9167V32.8181C40.8139 32.8181 39.8743 31.8785 39.8743 30.7194C39.8743 29.5604 40.8139 28.6208 41.9729 28.6208V26.5222C40.8139 26.5222 39.8743 25.5826 39.8743 24.4235C39.8743 23.2645 40.8139 22.3249 41.9729 22.3249V20.2262C40.8139 20.2262 39.8743 19.2866 39.8743 18.1276C39.8743 16.9685 40.8139 16.0289 41.9729 16.0289V13.9303C40.8139 13.9303 39.8743 12.9907 39.8743 11.8316C39.8743 10.6726 40.8139 9.73298 41.9729 9.73298V7.63433C40.8139 7.63433 39.8743 6.69473 39.8743 5.53568C39.8743 4.37663 40.8139 3.43703 41.9729 3.43703ZM37.7757 38.0647H10.6797C13.0871 34.462 18.4557 33.2332 21.7162 33.6926C23.8601 33.9946 25.5284 30.658 28.4615 30.658C29.0862 30.658 28.9271 31.4942 30.9955 31.4942C32.1872 31.4942 34.8857 30.5023 34.8857 28.291C34.8857 27.5175 33.7183 28.5494 31.0203 19.7622C30.7196 18.7829 31.4059 19.0162 31.2945 18.4274C30.7502 15.5509 29.6969 16.2864 29.2578 13.166C29.1212 12.195 28.8287 11.8495 26.4699 11.7271C27.3195 9.81077 32.568 8.56672 32.568 6.17768C32.568 5.69747 32.4602 7.05281 26.3914 8.5315C23.2346 9.30068 21.2927 9.43557 21.2049 11.6605C11.0805 11.6605 11.4602 8.67709 4.19729 7.84673V4.48636H37.7757V38.0647Z" fill="#DA291C"/>
</svg>
