<svg width="35" height="24" viewBox="0 0 35 24" fill="none" xmlns="http://www.w3.org/2000/svg">
<g clip-path="url(#clip0_476_7952)">
<path d="M30.8799 0.5H4.87988C2.94689 0.5 1.37988 2.067 1.37988 4V20C1.37988 21.933 2.94689 23.5 4.87988 23.5H30.8799C32.8129 23.5 34.3799 21.933 34.3799 20V4C34.3799 2.067 32.8129 0.5 30.8799 0.5Z" fill="white"/>
<path fill-rule="evenodd" clip-rule="evenodd" d="M18.0589 16.8307C16.8748 17.8288 15.3389 18.4313 13.6606 18.4313C9.9157 18.4313 6.87988 15.4316 6.87988 11.7313C6.87988 8.03094 9.9157 5.03125 13.6606 5.03125C15.3389 5.03125 16.8748 5.63375 18.0589 6.63179C19.2429 5.63375 20.7788 5.03125 22.4572 5.03125C26.202 5.03125 29.2379 8.03094 29.2379 11.7313C29.2379 15.4316 26.202 18.4313 22.4572 18.4313C20.7788 18.4313 19.2429 17.8288 18.0589 16.8307Z" fill="#ED0006"/>
<path fill-rule="evenodd" clip-rule="evenodd" d="M18.0596 16.8307C19.5175 15.6018 20.442 13.7732 20.442 11.7313C20.442 9.68929 19.5175 7.86069 18.0596 6.63179C19.2436 5.63375 20.7795 5.03125 22.4579 5.03125C26.2027 5.03125 29.2386 8.03094 29.2386 11.7313C29.2386 15.4316 26.2027 18.4313 22.4579 18.4313C20.7795 18.4313 19.2436 17.8288 18.0596 16.8307Z" fill="#F9A000"/>
<path fill-rule="evenodd" clip-rule="evenodd" d="M18.0592 16.8317C19.5171 15.6028 20.4415 13.7742 20.4415 11.7323C20.4415 9.69031 19.5171 7.86171 18.0592 6.63281C16.6012 7.86171 15.6768 9.69031 15.6768 11.7323C15.6768 13.7742 16.6012 15.6028 18.0592 16.8317Z" fill="#FF5E00"/>
<path d="M30.8799 0.5H4.87988C2.94689 0.5 1.37988 2.067 1.37988 4V20C1.37988 21.933 2.94689 23.5 4.87988 23.5H30.8799C32.8129 23.5 34.3799 21.933 34.3799 20V4C34.3799 2.067 32.8129 0.5 30.8799 0.5Z" stroke="#F9F7F6"/>
</g>
<defs>
<clipPath id="clip0_476_7952">
<rect width="34" height="24" fill="white" transform="translate(0.879883)"/>
</clipPath>
</defs>
</svg>
