<svg width="35" height="24" viewBox="0 0 35 24" fill="none" xmlns="http://www.w3.org/2000/svg">
<g clip-path="url(#clip0_476_7968)">
<path d="M30.8799 0.5H4.87988C2.94689 0.5 1.37988 2.067 1.37988 4V20C1.37988 21.933 2.94689 23.5 4.87988 23.5H30.8799C32.8129 23.5 34.3799 21.933 34.3799 20V4C34.3799 2.067 32.8129 0.5 30.8799 0.5Z" fill="white"/>
<path fill-rule="evenodd" clip-rule="evenodd" d="M15.4949 18.4513L15.7156 17.0021L15.2239 16.9903H12.876L14.5077 6.29663C14.5128 6.26425 14.5292 6.23419 14.5532 6.2128C14.5774 6.19142 14.6081 6.17969 14.6403 6.17969H18.5992C19.9137 6.17969 20.8207 6.46232 21.2942 7.02026C21.5162 7.28201 21.6576 7.5556 21.726 7.85657C21.7978 8.17244 21.799 8.54978 21.729 9.01008L21.7239 9.04356V9.33854L21.9459 9.46856C22.1328 9.57108 22.2815 9.68839 22.3954 9.82268C22.5853 10.0466 22.7081 10.331 22.76 10.6682C22.8137 11.015 22.796 11.4277 22.7081 11.895C22.6068 12.4324 22.4431 12.9006 22.2219 13.2835C22.0185 13.6364 21.7594 13.9292 21.4516 14.156C21.1578 14.3715 20.8088 14.5352 20.4142 14.6399C20.0318 14.7428 19.5957 14.7947 19.1175 14.7947H18.8094C18.5892 14.7947 18.3752 14.8767 18.2072 15.0237C18.0387 15.1737 17.9274 15.3788 17.8932 15.603L17.8699 15.7335L17.4799 18.2878L17.4623 18.3815C17.4575 18.4112 17.4495 18.426 17.4377 18.436C17.4272 18.4451 17.412 18.4513 17.3972 18.4513H15.4949Z" fill="#28356A"/>
<path fill-rule="evenodd" clip-rule="evenodd" d="M22.156 9.07812C22.1443 9.1562 22.1307 9.23599 22.1155 9.31798C21.5935 12.0886 19.8072 13.0457 17.5259 13.0457H16.3644C16.0854 13.0457 15.8502 13.2551 15.8068 13.5395L15.0437 18.5428C15.0155 18.7296 15.1547 18.8979 15.337 18.8979H17.3972C17.6411 18.8979 17.8483 18.7147 17.8868 18.466L17.907 18.3579L18.2949 15.8137L18.3198 15.6741C18.3578 15.4246 18.5655 15.2413 18.8094 15.2413H19.1175C21.1135 15.2413 22.676 14.4038 23.1327 11.98C23.3234 10.9675 23.2247 10.122 22.7199 9.52743C22.5672 9.34817 22.3776 9.19934 22.156 9.07812Z" fill="#298FC2"/>
<path fill-rule="evenodd" clip-rule="evenodd" d="M21.6087 8.84993C21.5289 8.82586 21.4466 8.80411 21.3622 8.78444C21.2773 8.76525 21.1904 8.74827 21.101 8.73336C20.7878 8.68106 20.4446 8.65625 20.077 8.65625H16.974C16.8975 8.65625 16.8249 8.6741 16.76 8.70635C16.6168 8.77747 16.5105 8.91751 16.4848 9.08895L15.8246 13.4105L15.8057 13.5365C15.8491 13.252 16.0842 13.0427 16.3632 13.0427H17.5248C19.806 13.0427 21.5923 12.085 22.1144 9.31488C22.13 9.23289 22.1431 9.1531 22.1548 9.07502C22.0227 9.00255 21.8797 8.9406 21.7256 8.88781C21.6876 8.87474 21.6483 8.86215 21.6087 8.84993Z" fill="#22284F"/>
<path fill-rule="evenodd" clip-rule="evenodd" d="M16.4846 9.0852C16.5103 8.91376 16.6166 8.77373 16.7598 8.7031C16.8252 8.67072 16.8973 8.65288 16.9738 8.65288H20.0768C20.4444 8.65288 20.7876 8.67781 21.1007 8.73011C21.1902 8.74489 21.2771 8.762 21.362 8.78118C21.4464 8.80073 21.5287 8.82261 21.6085 8.84656C21.6481 8.85878 21.6874 8.87148 21.7258 8.88407C21.8798 8.93686 22.023 8.9993 22.1551 9.07127C22.3104 8.0474 22.1538 7.35028 21.6182 6.71903C21.0277 6.02398 19.962 5.72656 18.5983 5.72656H14.6392C14.3607 5.72656 14.123 5.93588 14.08 6.22084L12.431 17.0245C12.3985 17.2382 12.558 17.431 12.7665 17.431H15.2107L16.4846 9.0852Z" fill="#28356A"/>
<path d="M30.8799 0.5H4.87988C2.94689 0.5 1.37988 2.067 1.37988 4V20C1.37988 21.933 2.94689 23.5 4.87988 23.5H30.8799C32.8129 23.5 34.3799 21.933 34.3799 20V4C34.3799 2.067 32.8129 0.5 30.8799 0.5Z" stroke="#F9F7F6"/>
</g>
<defs>
<clipPath id="clip0_476_7968">
<rect width="34" height="24" fill="white" transform="translate(0.879883)"/>
</clipPath>
</defs>
</svg>
