<svg width="35" height="24" viewBox="0 0 35 24" fill="none" xmlns="http://www.w3.org/2000/svg">
<g clip-path="url(#clip0_476_7948)">
<path d="M30.8799 0.5H4.87988C2.94689 0.5 1.37988 2.067 1.37988 4V20C1.37988 21.933 2.94689 23.5 4.87988 23.5H30.8799C32.8129 23.5 34.3799 21.933 34.3799 20V4C34.3799 2.067 32.8129 0.5 30.8799 0.5Z" fill="white"/>
<path fill-rule="evenodd" clip-rule="evenodd" d="M11.6309 15.8599H9.57117L8.02662 9.79393C7.95331 9.5149 7.79764 9.26822 7.56867 9.15196C6.99725 8.85979 6.36758 8.62726 5.68066 8.50999V8.27645H8.99874C9.45669 8.27645 9.80014 8.62726 9.85739 9.03469L10.6588 13.4103L12.7175 8.27645H14.72L11.6309 15.8599ZM15.8649 15.8599H13.9197L15.5214 8.27645H17.4667L15.8649 15.8599ZM19.9834 10.3773C20.0406 9.96883 20.3841 9.7353 20.7848 9.7353C21.4145 9.67666 22.1004 9.79393 22.6728 10.0851L23.0163 8.45237C22.4438 8.21883 21.8142 8.10156 21.2427 8.10156C19.3547 8.10156 17.9809 9.15196 17.9809 10.6098C17.9809 11.7189 18.954 12.3012 19.6409 12.652C20.3841 13.0018 20.6703 13.2354 20.6131 13.5852C20.6131 14.1099 20.0406 14.3434 19.4692 14.3434C18.7823 14.3434 18.0954 14.1685 17.4667 13.8763L17.1232 15.5101C17.8102 15.8012 18.5533 15.9185 19.2402 15.9185C21.3572 15.9761 22.6728 14.9267 22.6728 13.3516C22.6728 11.3681 19.9834 11.2518 19.9834 10.3773ZM29.4807 15.8599L27.9361 8.27645H26.2771C25.9336 8.27645 25.5902 8.50999 25.4757 8.85979L22.6155 15.8599H24.618L25.0177 14.7518H27.4782L27.7072 15.8599H29.4807ZM26.5633 10.3187L27.1347 13.1767H25.5329L26.5633 10.3187Z" fill="#172B85"/>
<path d="M30.8799 0.5H4.87988C2.94689 0.5 1.37988 2.067 1.37988 4V20C1.37988 21.933 2.94689 23.5 4.87988 23.5H30.8799C32.8129 23.5 34.3799 21.933 34.3799 20V4C34.3799 2.067 32.8129 0.5 30.8799 0.5Z" stroke="#F9F7F6"/>
</g>
<defs>
<clipPath id="clip0_476_7948">
<rect width="34" height="24" fill="white" transform="translate(0.879883)"/>
</clipPath>
</defs>
</svg>
