<svg width="35" height="24" viewBox="0 0 35 24" fill="none" xmlns="http://www.w3.org/2000/svg">
<g clip-path="url(#clip0_476_7958)">
<path d="M30.8799 0.5H4.87988C2.94689 0.5 1.37988 2.067 1.37988 4V20C1.37988 21.933 2.94689 23.5 4.87988 23.5H30.8799C32.8129 23.5 34.3799 21.933 34.3799 20V4C34.3799 2.067 32.8129 0.5 30.8799 0.5Z" fill="white"/>
<path d="M14.8799 23L33.8799 17.25V20C33.8799 21.6569 32.5368 23 30.8799 23H14.8799Z" fill="#FD6020"/>
<path fill-rule="evenodd" clip-rule="evenodd" d="M30.2736 9.11084C31.3189 9.11084 31.8938 9.59438 31.8938 10.5077C31.9461 11.2062 31.4757 11.7972 30.8485 11.9046L32.2596 13.8925H31.1621L29.96 11.9584H29.8555V13.8925H28.967V9.11084H30.2736ZM29.8555 11.3137H30.1168C30.6917 11.3137 30.953 11.045 30.953 10.5615C30.953 10.1317 30.6917 9.86304 30.1168 9.86304H29.8555V11.3137ZM25.8833 13.8925H28.3921V13.0866H26.7718V11.7972H28.3398V10.9913H26.7718V9.91674H28.3921V9.11084H25.8833V13.8925ZM23.2701 12.3345L22.068 9.11084H21.1273L23.0611 14H23.5314L25.4652 9.11084H24.5245L23.2701 12.3345ZM12.6604 11.5286C12.6604 12.8717 13.7057 14 15.0123 14C15.4304 14 15.7963 13.8925 16.1621 13.7314V12.6568C15.9008 12.9792 15.5349 13.1941 15.1168 13.1941C14.2806 13.1941 13.6011 12.5494 13.6011 11.6897V11.5823C13.5489 10.7227 14.2283 9.97048 15.0646 9.91675C15.4827 9.91675 15.9008 10.1317 16.1621 10.454V9.37948C15.8485 9.16458 15.4304 9.11085 15.0646 9.11085C13.7057 9.0034 12.6604 10.1317 12.6604 11.5286ZM11.0402 10.9376C10.5175 10.7227 10.3607 10.6152 10.3607 10.3466C10.413 10.0242 10.6743 9.75557 10.9879 9.8093C11.2492 9.8093 11.5105 9.97048 11.7196 10.1854L12.19 9.54066C11.8241 9.2183 11.3538 9.00339 10.8834 9.00339C10.1516 8.94967 9.52447 9.54066 9.4722 10.2928V10.3466C9.4722 10.9913 9.73353 11.3674 10.5698 11.636C10.7788 11.6897 10.9879 11.7972 11.197 11.9046C11.3538 12.0121 11.4583 12.1733 11.4583 12.3882C11.4583 12.7643 11.1447 13.0866 10.8311 13.0866H10.7788C10.3607 13.0866 9.99485 12.818 9.83806 12.4419L9.26314 13.0329C9.57673 13.6239 10.2039 13.9463 10.8311 13.9463C11.6673 14 12.3468 13.3553 12.399 12.4956V12.3345C12.3468 11.6897 12.0855 11.3674 11.0402 10.9376ZM8.0088 13.8925H8.8973V9.11084H8.0088V13.8925ZM3.87988 9.11086H5.1865H5.44782C6.70218 9.16458 7.6952 10.2391 7.64294 11.5286C7.64294 12.227 7.32935 12.8717 6.8067 13.3553C6.33632 13.7314 5.76141 13.9463 5.1865 13.8926H3.87988V9.11086ZM5.02971 13.0866C5.44782 13.1404 5.91821 12.9792 6.23179 12.7105C6.54538 12.3882 6.70218 11.9584 6.70218 11.4748C6.70218 11.045 6.54538 10.6152 6.23179 10.2928C5.91821 10.0242 5.44782 9.86302 5.02971 9.91674H4.76838V13.0866H5.02971Z" fill="black"/>
<path fill-rule="evenodd" clip-rule="evenodd" d="M18.827 9C17.5204 9 16.4229 10.0745 16.4229 11.4714C16.4229 12.8146 17.4682 13.9429 18.827 13.9966C20.1859 14.0503 21.2312 12.9221 21.2835 11.5252C21.2312 10.1283 20.1859 9 18.827 9Z" fill="#FD6020"/>
<path d="M30.8799 0.5H4.87988C2.94689 0.5 1.37988 2.067 1.37988 4V20C1.37988 21.933 2.94689 23.5 4.87988 23.5H30.8799C32.8129 23.5 34.3799 21.933 34.3799 20V4C34.3799 2.067 32.8129 0.5 30.8799 0.5Z" stroke="#F9F7F6"/>
</g>
<defs>
<clipPath id="clip0_476_7958">
<rect width="34" height="24" fill="white" transform="translate(0.879883)"/>
</clipPath>
</defs>
</svg>
