<svg width="35" height="24" viewBox="0 0 35 24" fill="none" xmlns="http://www.w3.org/2000/svg">
<g clip-path="url(#clip0_476_7964)">
<path d="M30.8799 0.5H4.87988C2.94689 0.5 1.37988 2.067 1.37988 4V20C1.37988 21.933 2.94689 23.5 4.87988 23.5H30.8799C32.8129 23.5 34.3799 21.933 34.3799 20V4C34.3799 2.067 32.8129 0.5 30.8799 0.5Z" fill="#1F72CD"/>
<path fill-rule="evenodd" clip-rule="evenodd" d="M6.97506 8.5L3.79395 15.7467H7.60219L8.0743 14.5913H9.15344L9.62555 15.7467H13.8174V14.8649L14.1909 15.7467H16.3592L16.7327 14.8462V15.7467H25.4505L26.5106 14.6213L27.5031 15.7467L31.9808 15.7561L28.7896 12.1436L31.9808 8.5H27.5726L26.5407 9.60463L25.5794 8.5H16.0955L15.2812 10.3704L14.4477 8.5H10.6474V9.35186L10.2246 8.5H6.97506ZM7.71194 9.52905H9.56825L11.6783 14.4431V9.52905H13.7118L15.3416 13.0524L16.8436 9.52905H18.8669V14.7291H17.6358L17.6257 10.6544L15.8308 14.7291H14.7294L12.9245 10.6544V14.7291H10.3917L9.91151 13.5633H7.31734L6.83816 14.728H5.48112L7.71194 9.52905ZM24.9995 9.52905H19.9933V14.726H24.922L26.5106 13.0036L28.0417 14.726H29.6423L27.3159 12.1426L29.6423 9.52905H28.1112L26.5306 11.2316L24.9995 9.52905ZM8.61496 10.4089L7.76029 12.4856H9.46865L8.61496 10.4089ZM21.2296 11.555V10.6057L24.3533 10.6048L25.7163 12.1229L24.2929 13.6493H21.2296V12.613H23.9607V11.555H21.2296Z" fill="white"/>
<path d="M30.8799 0.5H4.87988C2.94689 0.5 1.37988 2.067 1.37988 4V20C1.37988 21.933 2.94689 23.5 4.87988 23.5H30.8799C32.8129 23.5 34.3799 21.933 34.3799 20V4C34.3799 2.067 32.8129 0.5 30.8799 0.5Z" stroke="#F9F7F6"/>
</g>
<defs>
<clipPath id="clip0_476_7964">
<rect width="34" height="24" fill="white" transform="translate(0.879883)"/>
</clipPath>
</defs>
</svg>
